<svg width="25" height="25" viewBox="0 0 22 16" fill="none" xmlns="http://www.w3.org/2000/svg" style="margin-right: 10px;padding: 0;float: left;"> <path fill-rule="evenodd" clip-rule="evenodd" d="M10.6667 5.66641C10.6667 6.95108 9.16934 7.99967 7.33333 7.99967C5.49732 7.99967 4 6.95108 4 5.66641C4 4.38161 5.49287 3.33301 7.33333 3.33301C9.17379 3.33301 10.6667 4.38161 10.6667 5.66641ZM9.77545 5.66717C9.77545 4.85079 8.67022 4.16271 7.33342 4.16271V4.15857C6.00982 4.15857 4.89124 4.85079 4.89124 5.66717C4.89124 6.4837 6.00982 7.17163 7.33342 7.17163C8.65687 7.17163 9.77545 6.4837 9.77545 5.66717Z" fill="#2F80ED"></path> <path fill-rule="evenodd" clip-rule="evenodd" d="M14.5766 9.83887H20.9046C21.1413 9.83887 21.3333 10.032 21.3333 10.2699V15.5688C21.3333 15.8069 21.1413 16 20.9046 16H7.30122C6.99679 16 6.69664 15.9785 6.40092 15.9525H6.32798C2.76529 15.6119 0 13.3699 0 10.6537V5.35045C0 2.40144 3.26254 0 7.28838 0C11.3141 0 14.5766 2.40144 14.5766 5.35045V9.83887ZM13.7408 5.3553C13.7408 2.88036 10.8468 0.866882 7.30992 0.866882C3.77719 0.866882 0.879028 2.88036 0.879028 5.35514C0.879028 7.83008 3.75579 9.84356 7.30992 9.84356C10.864 9.84356 13.7408 7.83008 13.7408 5.3553ZM13.7407 7.86804V9.83846H11.254C12.2247 9.39606 13.0715 8.71916 13.7192 7.86804H13.7407ZM19.6185 15.1372H20.476V10.7007H7.33134C4.54036 10.7007 2.1266 9.55383 0.900452 7.86804V10.649C0.900452 12.8047 3.07843 14.6069 5.97201 15.0381V13.9558C5.97201 13.7178 6.16406 13.5247 6.40076 13.5247C6.63745 13.5247 6.8295 13.7178 6.8295 13.9558V15.1416H7.30963H8.54449V13.9558C8.54449 13.7178 8.73654 13.5247 8.97323 13.5247C9.20978 13.5247 9.40198 13.7178 9.40198 13.9558V15.1416H11.0439V12.9555C11.0439 12.7175 11.2361 12.5244 11.4726 12.5244C11.7093 12.5244 11.9014 12.7177 11.9014 12.9555V15.1416H13.6164V13.9558C13.6164 13.7178 13.8084 13.5247 14.0451 13.5247C14.2818 13.5247 14.4738 13.7178 14.4738 13.9558V15.1416H16.1887V13.9558C16.1887 13.7178 16.3807 13.5247 16.6174 13.5247C16.8541 13.5247 17.0462 13.7178 17.0462 13.9558V15.1416H18.7612V12.9555C18.7612 12.7175 18.9532 12.5244 19.1899 12.5244C19.4264 12.5244 19.6185 12.7177 19.6185 12.9555V15.1372Z" fill="#2F80ED"></path> </svg>